<svg width="24" height="24" viewBox="0 0 24 24" fill="none" xmlns="http://www.w3.org/2000/svg">
<path d="M14.6224 17.8969L3.94238 14.9839" stroke="#2B3FF3" stroke-width="2" stroke-linecap="round" stroke-linejoin="round"/>
<path d="M18.3764 2.62198C18.5735 2.42486 18.8075 2.26851 19.0651 2.16183C19.3226 2.05515 19.5986 2.00024 19.8774 2.00024C20.1562 2.00024 20.4322 2.05515 20.6897 2.16183C20.9473 2.26851 21.1813 2.42486 21.3784 2.62198C21.5755 2.81909 21.7319 3.0531 21.8386 3.31064C21.9452 3.56819 22.0001 3.84422 22.0001 4.12298C22.0001 4.40174 21.9452 4.67777 21.8386 4.93531C21.7319 5.19286 21.5755 5.42686 21.3784 5.62398L17.3604 9.64298C17.2667 9.73674 17.214 9.8639 17.214 9.99648C17.214 10.1291 17.2667 10.2562 17.3604 10.35L18.3044 11.294C18.7563 11.7459 19.0101 12.3589 19.0101 12.998C19.0101 13.6371 18.7563 14.25 18.3044 14.702L17.3604 15.646C17.2666 15.7397 17.1395 15.7924 17.0069 15.7924C16.8743 15.7924 16.7472 15.7397 16.6534 15.646L8.3544 7.34798C8.26067 7.25421 8.20801 7.12706 8.20801 6.99448C8.20801 6.8619 8.26067 6.73474 8.3544 6.64098L9.2984 5.69698C9.75035 5.24509 10.3633 4.99123 11.0024 4.99123C11.6415 4.99123 12.2544 5.24509 12.7064 5.69698L13.6504 6.64098C13.7442 6.73471 13.8713 6.78737 14.0039 6.78737C14.1365 6.78737 14.2636 6.73471 14.3574 6.64098L18.3764 2.62198Z" stroke="#2B3FF3" stroke-width="2" stroke-linecap="round" stroke-linejoin="round"/>
<path d="M9 8C7.196 10.71 5.03 11.46 2.417 11.948C2.33031 11.9638 2.24925 12.002 2.1818 12.0587C2.11435 12.1154 2.06285 12.1887 2.03236 12.2713C2.00188 12.354 1.99346 12.4432 2.00796 12.5301C2.02245 12.617 2.05934 12.6987 2.115 12.767L9.435 21.65C9.58368 21.8079 9.77966 21.9132 9.99341 21.95C10.2072 21.9868 10.4271 21.9531 10.62 21.854C12.735 20.405 16 16.792 16 15" stroke="#2B3FF3" stroke-width="2" stroke-linecap="round" stroke-linejoin="round"/>
</svg>
