<svg width="124" height="62" viewBox="0 0 124 62" fill="none" xmlns="http://www.w3.org/2000/svg">
<path fill-rule="evenodd" clip-rule="evenodd" d="M105.169 18.93C116.422 30.1829 123.127 45.1924 124 61.0826C120.675 57.1913 116.159 54.5066 111.152 53.4452C108.87 42.9003 103.417 33.3058 95.5247 25.9495C87.6325 18.5933 77.6788 13.8274 66.9998 12.2916C56.3207 10.7558 45.4274 12.5236 35.7821 17.3578C26.1368 22.1919 18.2011 29.861 13.0404 39.3356H0C4.13879 29.6024 10.6032 21.0339 18.826 14.3819C27.0488 7.72985 36.7786 3.19769 47.1615 1.18313C57.5444 -0.83143 68.2631 -0.26682 78.3769 2.82742C88.4907 5.92165 97.6905 11.4509 105.169 18.93Z" fill="white"/>
</svg>
