<svg width="80" height="37" viewBox="0 0 80 37" fill="none" xmlns="http://www.w3.org/2000/svg">
<path fill-rule="evenodd" clip-rule="evenodd" d="M79.9317 30.3896C75.8548 31.5803 72.1828 33.8668 69.3156 37.0001C68.4144 30.664 65.4688 24.7955 60.9268 20.2867C56.3849 15.7779 50.4949 12.8755 44.1523 12.0207C37.8097 11.1659 31.3615 12.4055 25.788 15.5511C20.2144 18.6966 15.8204 23.576 13.274 29.4475C12.8278 29.4237 12.381 29.412 11.9342 29.4122C7.55266 29.4122 3.47861 30.56 0 32.5598C1.92336 23.5338 6.82624 15.4168 13.9203 9.51401C21.0144 3.61123 29.8874 0.265629 39.1127 0.0151606C48.338 -0.235308 57.3794 2.62391 64.7833 8.13307C72.1872 13.6422 77.5233 21.4812 79.9336 30.3896H79.9317Z" fill="#B7B7B7"/>
</svg>
