<svg width="139" height="63" viewBox="0 0 139 63" fill="none" xmlns="http://www.w3.org/2000/svg">
<path d="M123.572 53.0874C125.513 53.0874 126.565 54.5298 126.565 56.3141V59.7H125.264V56.5244C125.264 55.3571 124.688 54.3333 123.48 54.3333C122.312 54.3333 121.723 55.3158 121.723 56.4988V59.7H120.424V56.4969C120.424 55.3178 119.834 54.3333 118.638 54.3333C117.431 54.3333 116.893 55.3551 116.893 56.5244V59.7H115.596V56.3279C115.596 54.5298 116.617 53.0854 118.547 53.0854C119.832 53.0854 120.764 53.7418 121.092 54.7401C121.446 53.7418 122.352 53.0874 123.572 53.0874ZM111.025 58.5976C112.218 58.5976 112.874 57.56 112.874 56.3672V53.2702H114.173V56.5244C114.173 58.3873 113.045 59.8572 111.025 59.8572C109.03 59.8572 107.9 58.3736 107.9 56.5106V53.2702H109.199V56.3809C109.199 57.56 109.844 58.5976 111.025 58.5976ZM104.237 59.8434C103.042 59.8434 102.125 59.3718 101.624 58.4148L102.622 57.8646C102.95 58.5052 103.475 58.743 104.184 58.743C104.919 58.743 105.483 58.4404 105.483 57.8764C105.483 56.5244 101.797 57.5482 101.797 55.0938C101.797 53.9658 102.793 53.1385 104.198 53.1385C105.391 53.1385 106.204 53.6887 106.611 54.4374L105.615 55.0034C105.34 54.4374 104.815 54.2409 104.223 54.2409C103.62 54.2409 103.096 54.5553 103.096 55.0663C103.096 56.3809 106.782 55.422 106.782 57.8489C106.782 59.0692 105.603 59.8434 104.237 59.8434ZM95.3176 62.6516H94.0167V56.4713C94.0167 54.5553 95.5004 53.111 97.4419 53.111C97.8874 53.1042 98.3299 53.1861 98.7435 53.352C99.1571 53.5178 99.5336 53.7643 99.8511 54.077C100.169 54.3897 100.421 54.7624 100.593 55.1735C100.765 55.5845 100.853 56.0257 100.853 56.4713C100.853 58.4148 99.4502 59.8572 97.493 59.8572C96.6283 59.8572 95.8423 59.476 95.3156 58.9002V62.6536L95.3176 62.6516ZM97.4419 58.6369C98.6367 58.6369 99.5544 57.6543 99.5544 56.4851C99.5544 55.3041 98.6367 54.347 97.4419 54.347C96.2353 54.347 95.3176 55.3041 95.3176 56.4851C95.3176 57.6524 96.2353 58.6369 97.4419 58.6369ZM90.9963 53.2702H92.2933V59.7H90.9963V53.2702ZM108.519 47.4024C98.5934 47.4024 91.0219 39.7679 91.0219 30.4769C91.0219 21.2527 98.5934 13.6162 108.519 13.6162C118.443 13.6162 126.017 21.2527 126.017 30.4769C126.017 39.7679 118.445 47.4024 108.519 47.4024ZM108.519 36.6493C112.145 36.6493 114.564 33.849 114.564 30.5417C114.564 27.1696 112.147 24.3693 108.519 24.3693C104.892 24.3693 102.475 27.1696 102.475 30.5398C102.475 33.849 104.892 36.6493 108.519 36.6493ZM69.3959 62.0365C61.5059 62.0365 55.7776 58.5386 52.8516 52.3014L62.3332 47.2117C63.3512 49.3734 65.2613 51.6018 69.2052 51.6018C73.3398 51.6018 76.0772 48.9921 76.3956 44.4115C74.8667 45.7477 72.4496 46.7657 68.824 46.7657C59.979 46.7657 52.8516 39.9585 52.8516 30.414C52.8516 21.1878 60.4251 13.6811 70.3509 13.6811C80.5302 13.6811 87.8482 20.7437 87.8482 30.4769V43.0752C87.8482 54.5278 79.8935 62.0365 69.3959 62.0365ZM70.1583 36.0126C73.5953 36.0126 76.203 33.6584 76.203 30.1585C76.203 26.7235 73.5953 24.4322 70.1583 24.4322C66.7862 24.4322 64.1156 26.7235 64.1156 30.1585C64.1156 33.6584 66.7881 36.0126 70.1583 36.0126ZM33.4245 47.4024C23.4988 47.4024 15.9272 39.7679 15.9272 30.4769C15.9272 21.2527 23.4988 13.6162 33.4245 13.6162C43.3483 13.6162 50.9219 21.2527 50.9219 30.4769C50.9219 39.7679 43.3503 47.4024 33.4245 47.4024ZM33.4245 36.6493C37.0502 36.6493 39.4692 33.849 39.4692 30.5417C39.4692 27.1696 37.0521 24.3693 33.4245 24.3693C29.7969 24.3693 27.3799 27.1696 27.3799 30.5398C27.3799 33.849 29.7969 36.6493 33.4245 36.6493ZM0 0H11.4527V46.4473H0V0ZM139 17.5189C139 18.5613 138.586 19.561 137.849 20.298C137.112 21.0351 136.112 21.4492 135.07 21.4492C134.027 21.4492 133.028 21.0351 132.291 20.298C131.554 19.561 131.14 18.5613 131.14 17.5189C131.14 16.4766 131.554 15.4769 132.291 14.7399C133.028 14.0028 134.027 13.5887 135.07 13.5887C136.112 13.5887 137.112 14.0028 137.849 14.7399C138.586 15.4769 139 16.4766 139 17.5189Z" fill="white"/>
</svg>
