<svg width="99" height="48" viewBox="0 0 99 48" fill="none" xmlns="http://www.w3.org/2000/svg">
<path fill-rule="evenodd" clip-rule="evenodd" d="M84.5791 15.6268C91.8259 22.8732 96.8324 32.0534 99 42.0698C97.3362 41.7141 95.6013 41.5244 93.8189 41.5244C91.4082 41.5244 89.0884 41.8682 86.9088 42.5104C84.4787 33.5218 79.096 25.6118 71.6264 20.0526C64.1567 14.4933 55.0344 11.6081 45.7265 11.8608C36.4186 12.1135 27.4663 15.4895 20.3093 21.4458C13.1523 27.4022 8.20668 35.5926 6.2679 44.6998C4.78598 45.5526 3.40236 46.5658 2.14199 47.7211V27.8326H0C3.96798 20.5476 9.58008 14.2882 16.3905 9.55162C23.201 4.81508 31.0221 1.73192 39.2326 0.547035C47.4432 -0.637847 55.8169 0.108203 63.6886 2.72592C71.5604 5.34364 78.7133 9.7609 84.5791 15.6268Z" fill="#CCCCCC"/>
</svg>
