<svg width="39" height="39" viewBox="0 0 39 39" fill="none" xmlns="http://www.w3.org/2000/svg">
<path fill-rule="evenodd" clip-rule="evenodd" d="M6.24 0.557143C5.66058 0.246739 4.97159 0.0577176 4.25024 0.0112575C3.52889 -0.0352025 2.80368 0.0627349 2.15587 0.294096C1.50805 0.525458 0.963236 0.881102 0.582462 1.32118C0.201687 1.76125 0 2.26837 0 2.78571V36.2143C0 36.7316 0.201687 37.2387 0.582462 37.6788C0.963236 38.1189 1.50805 38.4745 2.15587 38.7059C2.80368 38.9372 3.52889 39.0352 4.25024 38.9887C4.97159 38.9423 5.66058 38.7532 6.24 38.4428L37.44 21.7286C37.9244 21.4691 38.3175 21.1326 38.5882 20.7458C38.859 20.359 39 19.9325 39 19.5C39 19.0675 38.859 18.641 38.5882 18.2542C38.3175 17.8674 37.9244 17.5309 37.44 17.2714L6.24 0.557143Z" fill="white"/>
</svg>
