<svg width="24" height="24" viewBox="0 0 24 24" fill="none" xmlns="http://www.w3.org/2000/svg">
<path d="M14.6224 17.8969L3.94238 14.9839" stroke="white" stroke-width="2" stroke-linecap="round" stroke-linejoin="round"/>
<path d="M18.3764 2.62222C18.5735 2.42511 18.8075 2.26875 19.0651 2.16207C19.3226 2.05539 19.5986 2.00049 19.8774 2.00049C20.1562 2.00049 20.4322 2.05539 20.6897 2.16207C20.9473 2.26875 21.1813 2.42511 21.3784 2.62222C21.5755 2.81934 21.7319 3.05335 21.8386 3.31089C21.9452 3.56843 22.0001 3.84446 22.0001 4.12322C22.0001 4.40198 21.9452 4.67802 21.8386 4.93556C21.7319 5.1931 21.5755 5.42711 21.3784 5.62422L17.3604 9.64322C17.2667 9.73699 17.214 9.86414 17.214 9.99672C17.214 10.1293 17.2667 10.2565 17.3604 10.3502L18.3044 11.2942C18.7563 11.7462 19.0101 12.3591 19.0101 12.9982C19.0101 13.6373 18.7563 14.2503 18.3044 14.7022L17.3604 15.6462C17.2666 15.74 17.1395 15.7926 17.0069 15.7926C16.8743 15.7926 16.7472 15.74 16.6534 15.6462L8.3544 7.34822C8.26067 7.25446 8.20801 7.12731 8.20801 6.99472C8.20801 6.86214 8.26067 6.73499 8.3544 6.64122L9.2984 5.69722C9.75035 5.24534 10.3633 4.99148 11.0024 4.99148C11.6415 4.99148 12.2544 5.24534 12.7064 5.69722L13.6504 6.64122C13.7442 6.73496 13.8713 6.78762 14.0039 6.78762C14.1365 6.78762 14.2636 6.73496 14.3574 6.64122L18.3764 2.62222Z" stroke="white" stroke-width="2" stroke-linecap="round" stroke-linejoin="round"/>
<path d="M9 8C7.196 10.71 5.03 11.46 2.417 11.948C2.33031 11.9638 2.24925 12.002 2.1818 12.0587C2.11435 12.1154 2.06285 12.1887 2.03236 12.2713C2.00188 12.354 1.99346 12.4432 2.00796 12.5301C2.02245 12.617 2.05934 12.6987 2.115 12.767L9.435 21.65C9.58368 21.8079 9.77966 21.9132 9.99341 21.95C10.2072 21.9868 10.4271 21.9531 10.62 21.854C12.735 20.405 16 16.792 16 15" stroke="white" stroke-width="2" stroke-linecap="round" stroke-linejoin="round"/>
</svg>
